name analog
datacolumns 19
datarows 55
range 0.0 0.027
endheader
time	ground_force_vx	ground_force_vy	ground_force_vz	ground_force_px	ground_force_py	ground_force_pz	l_ground_force_vx	l_ground_force_vy	l_ground_force_vz	l_ground_force_px	l_ground_force_py	l_ground_force_pz	ground_torque_x	ground_torque_y	ground_torque_z	l_ground_torque_x	l_ground_torque_y	l_ground_torque_z
0.0	-0.0	-0.0	-0.0	1.4233983755111694	36.80689239501953	-361.5462341308594	0.2873410582542419	-38.49558639526367	-409.17230224609375	-0.0	-0.0	-0.0	-0.0	-0.0	-0.0	119056.171875	-3960.581787109375	-1580.3492431640625
0.0005	-0.0	-0.0	-0.0	1.41957426071167	36.96965408325195	-361.7488098144531	0.3673510253429413	-38.76076889038086	-409.4400024414063	-0.0	-0.0	-0.0	-0.0	-0.0	-0.0	118310.1171875	-4005.91748046875	-1615.62451171875
0.001	-0.0	-0.0	-0.0	1.283582329750061	36.55500030517578	-363.03851318359375	0.5322647094726562	-38.39121627807617	-410.1558532714844	-0.0	-0.0	-0.0	-0.0	-0.0	-0.0	118551.015625	-4171.1328125	-1635.3829345703125
0.0015	-0.0	-0.0	-0.0	1.3494842052459717	37.40459060668945	-362.0991516113281	0.7056376934051514	-38.92568206787109	-408.55517578125	-0.0	-0.0	-0.0	-0.0	-0.0	-0.0	118714.2734375	-4156.6435546875	-1554.623046875
0.002	-0.0	-0.0	-0.0	1.7730315923690796	36.647491455078125	-364.4226684570313	0.3668417036533355	-38.672950744628906	-408.15826416015625	-0.0	-0.0	-0.0	-0.0	-0.0	-0.0	118880.015625	-4175.54248046875	-1607.407958984375
0.0025	-0.0	-0.0	-0.0	1.5202553272247314	36.82188034057617	-363.4512939453125	0.6091246604919434	-38.57298278808594	-408.8099365234375	-0.0	-0.0	-0.0	-0.0	-0.0	-0.0	118748.8359375	-4159.4541015625	-1615.185302734375
0.003	-0.0	-0.0	-0.0	1.5129748582839966	36.65420150756836	-363.479248046875	0.1890550553798675	-38.42379760742188	-408.8260498046875	-0.0	-0.0	-0.0	-0.0	-0.0	-0.0	118993.0546875	-4015.93212890625	-1672.1080322265625
0.0035	-0.0	-0.0	-0.0	1.3452425003051758	36.81793975830078	-364.4536437988281	0.3701103031635284	-38.41233825683594	-408.7964782714844	-0.0	-0.0	-0.0	-0.0	-0.0	-0.0	118355.09375	-4180.4453125	-1670.6798095703125
0.004	-0.0	-0.0	-0.0	1.41688871383667	36.81435012817383	-361.9818115234375	0.3473075926303863	-38.58157730102539	-408.18792724609375	-0.0	-0.0	-0.0	-0.0	-0.0	-0.0	118545.078125	-3895.9404296875	-1762.2508544921875
0.0045000000000000005	-0.0	-0.0	-0.0	1.4444695711135864	36.71147537231445	-363.4221801757813	0.3511478304862976	-38.75850677490234	-407.8236389160156	-0.0	-0.0	-0.0	-0.0	-0.0	-0.0	118483.125	-3995.10791015625	-1868.5439453125
0.005	-0.0	-0.0	-0.0	1.417291283607483	36.72508239746094	-362.0360412597656	-0.1519812494516372	-37.97832489013672	-407.11077880859375	-0.0	-0.0	-0.0	-0.0	-0.0	-0.0	118315.6953125	-3969.904052734375	-1735.1300048828125
0.0055	-0.0	-0.0	-0.0	1.2620915174484253	36.36191940307617	-363.0559692382813	-0.0887107849121093	-38.14078140258789	-406.8738098144531	-0.0	-0.0	-0.0	-0.0	-0.0	-0.0	118754.828125	-3799.0986328125	-1762.311279296875
0.006	-0.0	-0.0	-0.0	1.3381576538085938	36.391075134277344	-363.6984558105469	-0.0887107849121093	-38.41643905639648	-407.4461364746094	-0.0	-0.0	-0.0	-0.0	-0.0	-0.0	118205.515625	-3859.42919921875	-1792.0125732421875
0.006500000000000001	-0.0	-0.0	-0.0	1.7873986959457395	36.55302047729492	-362.3247375488281	-0.3444844484329223	-38.15496826171875	-406.4668273925781	-0.0	-0.0	-0.0	-0.0	-0.0	-0.0	118261.5625	-3871.517333984375	-1907.2802734375
0.007	-0.0	-0.0	-0.0	0.9906625747680664	36.79840850830078	-361.6439208984375	-0.0067608961835503	-38.33161163330078	-407.433349609375	-0.0	-0.0	-0.0	-0.0	-0.0	-0.0	118124.8359375	-3951.20751953125	-1965.306884765625
0.0075	-0.0	-0.0	-0.0	1.4456939697265625	36.89998626708984	-362.739990234375	-0.1707587838172912	-37.98495864868164	-406.1158142089844	-0.0	-0.0	-0.0	-0.0	-0.0	-0.0	118041.3671875	-3801.643310546875	-1874.1480712890625
0.008	-0.0	-0.0	-0.0	1.769184947013855	36.54946899414063	-362.03326416015625	-0.3515607118606567	-37.80495071411133	-406.0633544921875	-0.0	-0.0	-0.0	-0.0	-0.0	-0.0	117850.578125	-3807.38134765625	-1910.546142578125
0.0085	-0.0	-0.0	-0.0	1.5969926118850708	36.98912048339844	-362.7622680664063	-0.0192599277943372	-38.5774040222168	-407.047607421875	-0.0	-0.0	-0.0	-0.0	-0.0	-0.0	117693.3828125	-3907.3486328125	-1818.245361328125
0.009000000000000001	-0.0	-0.0	-0.0	1.683516263961792	36.72459411621094	-363.1371765136719	-0.0918597728013992	-38.413665771484375	-405.0654296875	-0.0	-0.0	-0.0	-0.0	-0.0	-0.0	117878.5390625	-3504.740966796875	-1820.3818359375
0.0095	-0.0	-0.0	-0.0	1.343753695487976	36.89719009399414	-364.084228515625	-0.4374008476734161	-37.74093246459961	-406.4003601074219	-0.0	-0.0	-0.0	-0.0	-0.0	-0.0	117830.7890625	-3471.484130859375	-1791.797119140625
0.01	-0.0	-0.0	-0.0	1.7677178382873535	36.90547943115234	-366.1496887207031	-0.4465814530849457	-37.89302062988281	-406.7259216308594	-0.0	-0.0	-0.0	-0.0	-0.0	-0.0	118051.140625	-3640.4375	-1877.7645263671875
0.0105	-0.0	-0.0	-0.0	1.6761047840118408	37.32676315307617	-364.82421875	-0.2691107094287872	-38.32864761352539	-405.4002075195313	-0.0	-0.0	-0.0	-0.0	-0.0	-0.0	117753.0078125	-3185.177978515625	-1795.744873046875
0.011	-0.0	-0.0	-0.0	1.7868366241455078	37.0677490234375	-365.5204772949219	-0.7867733836174011	-38.22014999389648	-406.0176086425781	-0.0	-0.0	-0.0	-0.0	-0.0	-0.0	117674.609375	-3383.971435546875	-1911.6810302734373
0.0115	-0.0	-0.0	-0.0	1.503754734992981	37.23857116699219	-363.0791320800781	-0.7841739058494568	-37.99248504638672	-405.3650512695313	-0.0	-0.0	-0.0	-0.0	-0.0	-0.0	117403.6953125	-3539.615478515625	-2053.2216796875
0.012	-0.0	-0.0	-0.0	1.8532987833023071	37.61302947998047	-364.1384887695313	-0.7928063273429871	-37.53950500488281	-404.666748046875	-0.0	-0.0	-0.0	-0.0	-0.0	-0.0	117301.5234375	-3600.404541015625	-2027.25341796875
0.0125	-0.0	-0.0	-0.0	1.5141363143920898	37.25894927978516	-364.50103759765625	-0.7178550362586975	-37.98374557495117	-405.0051574707031	-0.0	-0.0	-0.0	-0.0	-0.0	-0.0	117264.3046875	-3714.44677734375	-1997.6490478515625
0.013000000000000001	-0.0	-0.0	-0.0	1.174022912979126	37.43476867675781	-365.8755493164063	-0.5455743074417114	-37.89000701904297	-404.3175659179688	-0.0	-0.0	-0.0	-0.0	-0.0	-0.0	117258.4921875	-3414.313720703125	-2001.953369140625
0.0135	-0.0	-0.0	-0.0	1.514270544052124	37.69755172729492	-365.8304443359375	-0.7932181358337402	-37.80683898925781	-405.32427978515625	-0.0	-0.0	-0.0	-0.0	-0.0	-0.0	117316.6171875	-3319.992431640625	-1971.4573974609373
0.014	-0.0	-0.0	-0.0	1.6882237195968628	37.265533447265625	-366.1939697265625	-0.8060176968574524	-37.46356964111328	-403.6392517089844	-0.0	-0.0	-0.0	-0.0	-0.0	-0.0	117285.0625	-3487.21923828125	-2113.6875
0.0145	-0.0	-0.0	-0.0	0.9923023581504822	37.25431442260742	-364.8262023925781	-0.6308925151824951	-37.80168151855469	-403.9391784667969	-0.0	-0.0	-0.0	-0.0	-0.0	-0.0	117113.515625	-3420.992919921875	-2257.88525390625
0.015	-0.0	-0.0	-0.0	1.6949996948242188	37.34988784790039	-364.136962890625	-1.148426532745361	-38.23370742797852	-403.2890930175781	-0.0	-0.0	-0.0	-0.0	-0.0	-0.0	116817.6640625	-3331.900390625	-2090.230224609375
0.0155	-0.0	-0.0	-0.0	1.5082777738571167	37.52182769775391	-365.2044677734375	-0.5346224904060364	-37.5273323059082	-402.26904296875	-0.0	-0.0	-0.0	-0.0	-0.0	-0.0	116702.90625	-3645.77001953125	-1999.7681884765625
0.016	-0.0	-0.0	-0.0	1.3422088623046875	37.6170768737793	-365.2201232910156	-1.2373340129852295	-37.29243850708008	-402.2499084472656	-0.0	-0.0	-0.0	-0.0	-0.0	-0.0	116833.9609375	-3225.40625	-2232.83935546875
0.0165	-0.0	-0.0	-0.0	1.2489471435546875	37.26041030883789	-365.1803283691406	-1.3150094747543335	-37.53226852416992	-403.2613525390625	-0.0	-0.0	-0.0	-0.0	-0.0	-0.0	116774.8984375	-3289.03564453125	-2205.607421875
0.017	-0.0	-0.0	-0.0	1.5127962827682495	37.26217651367188	-364.5191345214844	-0.7162107229232788	-37.62287139892578	-401.8649597167969	-0.0	-0.0	-0.0	-0.0	-0.0	-0.0	116896.25	-3198.026611328125	-2085.821044921875
0.0175	-0.0	-0.0	-0.0	1.3345210552215576	37.70034790039063	-365.872802734375	-0.715993344783783	-37.44421005249024	-402.22265625	-0.0	-0.0	-0.0	-0.0	-0.0	-0.0	116503.359375	-3311.416015625	-2086.502685546875
0.018000000000000002	-0.0	-0.0	-0.0	1.075832486152649	37.78245544433594	-365.9224243164063	-0.9778717160224916	-37.18343353271485	-402.547607421875	-0.0	-0.0	-0.0	-0.0	-0.0	-0.0	116552.0546875	-3098.5107421875	-2086.622802734375
0.0185	-0.0	-0.0	-0.0	1.1716889142990112	37.25991821289063	-364.895751953125	-1.1492559909820557	-37.35610961914063	-401.8892211914063	-0.0	-0.0	-0.0	-0.0	-0.0	-0.0	116562.6171875	-3507.3623046875	-2116.45263671875
0.019	-0.0	-0.0	-0.0	1.3381576538085938	37.35870742797852	-366.2540893554688	-0.5380237698554993	-37.1008415222168	-401.8886413574219	-0.0	-0.0	-0.0	-0.0	-0.0	-0.0	116676.1875	-3304.177490234375	-1996.655029296875
0.0195	-0.0	-0.0	-0.0	1.3429127931594849	38.058685302734375	-367.2820434570313	-1.0645294189453125	-37.3544921875	-401.5317077636719	-0.0	-0.0	-0.0	-0.0	-0.0	-0.0	116694.2109375	-3328.410888671875	-2087.353271484375
0.02	-0.0	-0.0	-0.0	1.3442994356155396	38.22927474975586	-365.9248046875	-0.8002181053161621	-37.09510803222656	-400.8475646972656	-0.0	-0.0	-0.0	-0.0	-0.0	-0.0	116812.734375	-3490.939208984375	-1968.4268798828125
0.0205	-0.0	-0.0	-0.0	1.344007968902588	37.96516799926758	-366.28814697265625	-0.9705727696418762	-37.35659408569336	-402.9278564453125	-0.0	-0.0	-0.0	-0.0	-0.0	-0.0	116889.3828125	-3381.19287109375	-1996.5
0.021	-0.0	-0.0	-0.0	1.6992396116256714	38.05586242675781	-369.409423828125	-0.8905071020126343	-37.09849166870117	-402.867431640625	-0.0	-0.0	-0.0	-0.0	-0.0	-0.0	116876.4140625	-3662.134033203125	-1938.7872314453125
0.021500000000000002	-0.0	-0.0	-0.0	1.60847008228302	38.06002426147461	-368.7251586914063	-0.622602641582489	-37.01327133178711	-401.5179443359375	-0.0	-0.0	-0.0	-0.0	-0.0	-0.0	117000.40625	-3423.842529296875	-1969.302978515625
0.022	-0.0	-0.0	-0.0	2.1346583366394043	38.23694610595703	-367.6451416015625	-1.0598318576812744	-37.016143798828125	-402.2164916992188	-0.0	-0.0	-0.0	-0.0	-0.0	-0.0	116481.21875	-3675.3564453125	-2027.3106689453125
0.0225	-0.0	-0.0	-0.0	1.6962171792984009	38.32120895385742	-366.634521484375	-0.968294322490692	-37.18193435668945	-401.5302734375	-0.0	-0.0	-0.0	-0.0	-0.0	-0.0	116751.5390625	-3559.218994140625	-2055.44189453125
0.023	-0.0	-0.0	-0.0	1.871131539344788	38.056396484375	-369.054931640625	-0.6267051696777344	-36.83584976196289	-401.5356140136719	-0.0	-0.0	-0.0	-0.0	-0.0	-0.0	116533.171875	-3475.533935546875	-1966.191650390625
0.0235	-0.0	-0.0	-0.0	2.2313578128814697	38.238040924072266	-368.37103271484375	-0.5322647094726562	-37.17379379272461	-402.1954345703125	-0.0	-0.0	-0.0	-0.0	-0.0	-0.0	116678.15625	-3532.138427734375	-2054.789306640625
0.024	-0.0	-0.0	-0.0	2.228170871734619	38.14781188964844	-368.7364196777344	-0.709686279296875	-37.271751403808594	-400.5084533691406	-0.0	-0.0	-0.0	-0.0	-0.0	-0.0	116624.484375	-3482.519287109375	-2055.005859375
0.0245	-0.0	-0.0	-0.0	1.872447609901428	38.58958053588867	-370.8312377929688	-1.0582200288772583	-36.91971969604492	-401.1802062988281	-0.0	-0.0	-0.0	-0.0	-0.0	-0.0	116471.4296875	-3330.604248046875	-1968.8006591796875
0.025	-0.0	-0.0	-0.0	2.4924237728118896	38.14598846435547	-369.7902526855469	-0.973416805267334	-37.62145233154297	-400.4769287109375	-0.0	-0.0	-0.0	-0.0	-0.0	-0.0	116641.71875	-3615.380126953125	-1882.2952880859373
0.025500000000000002	-0.0	-0.0	-0.0	1.8776153326034544	38.14781188964844	-370.815673828125	-0.7130716443061829	-37.098480224609375	-400.4724731445313	-0.0	-0.0	-0.0	-0.0	-0.0	-0.0	116479.0234375	-3540.687744140625	-1996.6661376953125
0.026000000000000002	-0.0	-0.0	-0.0	1.8757883310317995	38.05947494506836	-368.7135925292969	-0.6209754943847656	-37.10047912597656	-399.08880615234375	-0.0	-0.0	-0.0	-0.0	-0.0	-0.0	116346.15625	-3482.182373046875	-2084.90478515625
0.0265	-0.0	-0.0	-0.0	1.6065287590026855	37.96881103515625	-369.7823486328125	-0.8850483894348145	-37.26457595825195	-401.4959716796875	-0.0	-0.0	-0.0	-0.0	-0.0	-0.0	116226.4765625	-3207.304931640625	-1939.290283203125
0.027	-0.0	-0.0	-0.0	1.8720871210098269	38.06001663208008	-370.12994384765625	-0.7106435298919678	-37.26984405517578	-400.1465759277344	-0.0	-0.0	-0.0	-0.0	-0.0	-0.0	116157.59375	-3139.641845703125	-2056.150634765625
